<svg width="20" height="20" viewBox="0 0 20 20" fill="none" xmlns="http://www.w3.org/2000/svg">
<mask id="mask0_311_2679" style="mask-type:alpha" maskUnits="userSpaceOnUse" x="0" y="0" width="20" height="20">
<rect width="20" height="20" fill="#D9D9D9"/>
</mask>
<g mask="url(#mask0_311_2679)">
<path d="M10.0013 17.5833C8.96283 17.5833 7.9829 17.3857 7.06151 16.9904C6.13998 16.5951 5.33332 16.0516 4.64151 15.3598C3.9497 14.668 3.40616 13.8617 3.01089 12.9408C2.61561 12.0199 2.41797 11.0364 2.41797 9.99041C2.41797 8.94444 2.61561 7.96423 3.01089 7.04979C3.40616 6.13521 3.9497 5.33201 4.64151 4.64021C5.33332 3.9484 6.13866 3.40486 7.05755 3.00958C7.97644 2.6143 8.95769 2.41666 10.0013 2.41666C11.9307 2.41666 13.5939 3.03694 14.9907 4.2775C16.3873 5.51805 17.2221 7.0618 17.4948 8.90875H16.3884C16.2094 7.79861 15.7737 6.81111 15.0815 5.94625C14.3891 5.08139 13.5291 4.43423 12.5013 4.00479V4.5C12.5013 4.9125 12.3544 5.26562 12.0607 5.55937C11.7669 5.85312 11.4138 6 11.0013 6H9.0013V7C9.0013 7.28333 8.90547 7.52083 8.7138 7.7125C8.52214 7.90416 8.28464 8 8.0013 8H7.0013V10H7.93714V12H7.0013L3.64714 8.64583C3.61075 8.86805 3.57734 9.09028 3.54693 9.3125C3.51651 9.53472 3.5013 9.76389 3.5013 10C3.5013 11.8056 4.13325 13.3403 5.39714 14.6042C6.66102 15.8681 8.19575 16.5 10.0013 16.5V17.5833ZM16.9067 17.1794L14.2401 14.5287C13.9837 14.7147 13.7106 14.8536 13.4209 14.9454C13.1312 15.0374 12.8246 15.0833 12.5013 15.0833C11.6413 15.0833 10.9124 14.7844 10.3146 14.1867C9.71686 13.5889 9.41797 12.86 9.41797 12C9.41797 11.14 9.71686 10.4111 10.3146 9.81333C10.9124 9.21555 11.6413 8.91666 12.5013 8.91666C13.3613 8.91666 14.0902 9.21521 14.688 9.81229C15.2857 10.4094 15.5846 11.1374 15.5846 11.9965C15.5846 12.3247 15.5373 12.6357 15.4428 12.9296C15.3482 13.2233 15.2053 13.4984 15.014 13.7548L17.6807 16.4054L16.9067 17.1794ZM12.4965 14C13.0553 14 13.5291 13.8071 13.918 13.4215C14.3069 13.0356 14.5013 12.5634 14.5013 12.0048C14.5013 11.446 14.3085 10.9722 13.9228 10.5833C13.5369 10.1944 13.0647 10 12.5061 10C11.9473 10 11.4735 10.1928 11.0846 10.5785C10.6957 10.9644 10.5013 11.4366 10.5013 11.9952C10.5013 12.554 10.6941 13.0278 11.0798 13.4167C11.4657 13.8056 11.9379 14 12.4965 14Z" fill="#666666"/>
</g>
</svg>
