<svg width="175" height="35" viewBox="0 0 175 35" fill="none" xmlns="http://www.w3.org/2000/svg">
<g clip-path="url(#clip0_172_3835)">
<path d="M20.2602 14.278C19.9672 14.3571 19.8595 14.3871 19.6523 14.4416L22.9861 13.6375C21.5673 13.9673 20.4033 14.2385 20.2602 14.2767V14.278Z" fill="white"/>
<path d="M49.368 6.26251L47.727 8.03296L37.5146 10.2327C34.1836 7.62681 30.1153 5.10675 29.3357 4.62973L28.0872 5.59332L26.9042 6.47922L26.4285 6.79678C26.6357 6.50512 26.8729 6.25297 27.1223 6.01582C27.369 5.77595 27.6347 5.56061 27.9032 5.35071C28.1785 5.14764 28.4566 4.95001 28.7537 4.77692C28.8968 4.69106 29.0426 4.60928 29.1926 4.53432C28.9936 4.25356 25.9093 0.0734559 19.6166 0.0012207C11.8261 0.337864 5.76655 3.47533 1.67231 10.4126C1.67231 10.4126 2.41511 9.95878 3.70035 9.65212C2.5296 9.96832 0 14.3692 0 17.9905C0 17.9905 0.528816 17.3145 1.5551 16.6548C0.611955 18.2004 -0.10222 22.6504 3.38824 28.436C3.38824 28.436 3.33372 26.9927 3.7058 25.1895C5.79245 32.0668 10.1334 35.0012 10.1334 35.0012C14.7455 18.2222 24.4087 14.3447 24.4087 14.3447C30.5841 15.2251 39.8193 13.9222 39.8193 13.9222L30.1766 12.3275C29.9367 12.3889 29.352 12.5088 29.1871 12.5552C29.0372 12.5988 27.7601 12.8877 26.2377 13.2312L18.2728 15.1515L16.9153 17.3908L15.1639 17.8256C15.1871 17.7629 15.2076 17.6988 15.2266 17.6348C15.2648 17.508 15.2961 17.3799 15.3193 17.2477C15.3425 17.1169 15.3588 16.9833 15.3561 16.8443C15.2784 16.9588 15.2185 17.0801 15.1667 17.2027C15.1149 17.3254 15.0699 17.4508 15.0331 17.5775C15.0031 17.6757 14.9786 17.7765 14.9581 17.8774L11.3232 18.781C11.3355 18.7415 11.3491 18.7033 11.36 18.6638C11.3982 18.537 11.4295 18.4089 11.4527 18.2767C11.4759 18.1459 11.4922 18.0123 11.4895 17.8733C11.4104 17.9878 11.3518 18.1091 11.3 18.2318C11.2482 18.3544 11.2033 18.4798 11.1665 18.6066C11.1447 18.6815 11.1242 18.7578 11.1065 18.8342L7.87636 19.6369C7.88454 19.6124 7.89136 19.5892 7.89953 19.5647C7.9377 19.4379 7.96904 19.3098 7.99221 19.1776C8.01538 19.0468 8.03174 18.9132 8.02901 18.7742C7.95132 18.8887 7.89272 19.01 7.83956 19.1326C7.78777 19.2553 7.7428 19.3807 7.706 19.5075C7.68828 19.5688 7.67056 19.6301 7.65693 19.6928L5.3822 20.2584L6.80646 17.9087L18.2005 15.0684L18.161 14.9035L6.7683 17.7438L4.36819 16.2882L6.70833 15.7076C6.75058 15.7621 6.79284 15.8166 6.83781 15.8698C6.92368 15.9693 7.01363 16.0661 7.1104 16.156C7.20853 16.246 7.31075 16.3318 7.42796 16.4041C7.37481 16.2759 7.3053 16.1615 7.23306 16.0511C7.15946 15.9407 7.07905 15.8371 6.99319 15.7362C6.97002 15.709 6.94548 15.6817 6.92095 15.6545L10.2233 14.834C10.286 14.9239 10.3528 15.0098 10.4237 15.0929C10.5095 15.1938 10.5995 15.2892 10.6963 15.3791C10.793 15.4691 10.8952 15.555 11.0138 15.6272C10.9607 15.4991 10.8912 15.3846 10.8176 15.2742C10.744 15.1638 10.6636 15.0602 10.5777 14.9594C10.5259 14.8994 10.4727 14.8421 10.4182 14.7849L13.9973 13.8949C14.0014 13.9017 14.0068 13.9099 14.0109 13.9167C14.0845 14.0271 14.1649 14.1307 14.2508 14.2316C14.3366 14.331 14.4266 14.4278 14.5234 14.5178C14.6215 14.6077 14.7224 14.6936 14.8409 14.7658C14.7878 14.6377 14.7183 14.5232 14.6447 14.4128C14.5697 14.3024 14.4907 14.1988 14.4048 14.098C14.3312 14.0121 14.2535 13.929 14.1717 13.8513L15.9272 13.4152L18.2005 14.7931L19.6562 14.4428C19.8633 14.3883 19.971 14.3583 20.264 14.2793C20.4071 14.2411 21.5711 13.9685 22.9899 13.64L29.1408 12.1572L26.5076 11.7224C31.6363 11.4907 41.4276 13.9235 41.4276 13.9235C40.6889 12.915 39.3818 11.721 37.8908 10.5298L47.7407 8.40776L50.1299 9.27322L55.9809 6.26524H49.3734L49.368 6.26251ZM23.7081 6.79269C23.1248 6.79269 22.6519 6.31976 22.6519 5.73642C22.6519 5.15309 23.1248 4.68015 23.7081 4.68015C24.2915 4.68015 24.7644 5.15309 24.7644 5.73642C24.7644 6.31976 24.2915 6.79269 23.7081 6.79269Z" fill="white"/>
</g>
<g clip-path="url(#clip1_172_3835)">
<path d="M68.8064 8.27026H66V27.8799H77.6353V25.3246H68.8064V8.27026Z" fill="white"/>
<path d="M90.0213 8.27026H88.0585L79.6855 27.8771H82.5548L84.9899 22.1005H93.3083L95.9072 27.8771H98.7628L90.0213 8.27026ZM86.0983 19.6162L89.014 12.5536L92.1589 19.6162H86.0956H86.0983Z" fill="white"/>
<path d="M109.576 17.5059C111.569 16.6732 112.566 15.2918 112.566 13.3644C112.566 12.3625 112.328 11.4807 111.85 10.7191C111.373 9.95741 110.679 9.3568 109.773 8.92273C108.866 8.48866 107.602 8.27026 105.984 8.27026H100.846V27.8799H107.485C108.981 27.8799 110.229 27.6314 111.225 27.1373C112.222 26.6405 112.978 26.0016 113.491 25.2154C114.004 24.4291 114.264 23.5364 114.264 22.5345C114.264 21.2705 113.841 20.1867 112.994 19.2776C112.148 18.3713 111.01 17.7816 109.576 17.5086V17.5059ZM103.652 10.7682H106.065C108.46 10.7682 109.658 11.7073 109.658 13.5883C109.658 14.4947 109.341 15.2345 108.711 15.8051C108.08 16.3756 107.016 16.6623 105.517 16.6623H103.649V10.7682H103.652ZM110.859 23.905C110.526 24.41 110.087 24.7813 109.541 25.0216C108.992 25.2591 107.952 25.3792 106.418 25.3792H103.652V19.1602H106.276C107.671 19.1602 108.689 19.2804 109.336 19.5261C109.983 19.769 110.48 20.1376 110.832 20.6344C111.184 21.1313 111.359 21.6773 111.359 22.2779C111.359 22.8785 111.192 23.3999 110.859 23.905Z" fill="white"/>
<path d="M133.625 10.861C131.621 8.95277 129.112 8 126.101 8C123.09 8 120.598 8.95277 118.627 10.861C116.655 12.7693 115.67 15.1772 115.67 18.0901C115.67 21.003 116.647 23.288 118.605 25.1717C120.562 27.0554 123.011 27.9973 125.948 27.9973C128.886 27.9973 131.575 27.0554 133.598 25.1717C135.621 23.288 136.631 20.9075 136.631 18.0328C136.631 15.1581 135.629 12.7666 133.625 10.8583V10.861ZM131.575 23.2962C130.12 24.7185 128.304 25.4311 126.131 25.4311C123.958 25.4311 122.162 24.7322 120.72 23.3372C119.279 21.9421 118.558 20.1922 118.558 18.0901C118.558 15.988 119.276 14.1398 120.712 12.7447C122.148 11.3497 123.983 10.6508 126.213 10.6508C128.444 10.6508 130.12 11.3552 131.575 12.7639C133.03 14.1725 133.756 15.9115 133.756 17.9754C133.756 20.0393 133.03 21.8684 131.575 23.2935V23.2962Z" fill="white"/>
<path d="M152.694 26.4739C152.282 25.9115 151.736 25.0762 151.051 23.9623C149.964 22.1933 149.123 20.9539 148.525 20.2441C147.927 19.5343 147.313 18.9719 146.685 18.5596C147.753 18.1474 148.572 17.525 149.142 16.6923C149.713 15.8597 150 14.8714 150 13.7303C150 12.054 149.418 10.7273 148.252 9.74446C147.087 8.76166 145.514 8.27026 143.529 8.27026H138.618V27.8799H141.425V19.3459H142.156C143.074 19.3459 143.729 19.4524 144.116 19.6598C144.504 19.87 144.941 20.214 145.424 20.689C145.907 21.1668 146.437 21.8056 147.016 22.611L147.955 24.1425L148.826 25.5758L149.372 26.3483C149.456 26.4603 149.511 26.5394 149.541 26.5859L150.395 27.8771H153.737L152.7 26.4739H152.694ZM145.416 16.4794C144.886 16.7224 143.912 16.8452 142.489 16.8452H141.422V10.6563H142.263C143.639 10.6563 144.624 10.76 145.217 10.9648C145.812 11.1695 146.27 11.5244 146.598 12.024C146.926 12.5236 147.089 13.0833 147.089 13.7002C147.089 14.3172 146.942 14.8851 146.647 15.3765C146.352 15.8679 145.94 16.2337 145.413 16.4794H145.416Z" fill="white"/>
<path d="M166.109 8.27026H164.149L155.773 27.8771H158.643L161.078 22.1005H169.396L171.995 27.8771H174.851L166.109 8.27026ZM162.186 19.6162L165.102 12.5536L168.247 19.6162H162.183H162.186Z" fill="white"/>
</g>
<defs>
<clipPath id="clip0_172_3835">
<rect width="55.9755" height="35" fill="white"/>
</clipPath>
<clipPath id="clip1_172_3835">
<rect width="108.851" height="20" fill="white" transform="translate(66 8)"/>
</clipPath>
</defs>
</svg>
