<svg width="20" height="21" viewBox="0 0 20 21" fill="none" xmlns="http://www.w3.org/2000/svg">
<path d="M20 1.67567V18.7345C20 19.1245 19.8451 19.4986 19.5693 19.7744C19.2935 20.0501 18.9194 20.2051 18.5294 20.2051H1.47059C1.08056 20.2051 0.706514 20.0501 0.430725 19.7744C0.154937 19.4986 0 19.1245 0 18.7345L0 1.67567C0 1.28564 0.154937 0.911592 0.430725 0.635803C0.706514 0.360015 1.08056 0.205078 1.47059 0.205078L18.5294 0.205078C18.9194 0.205078 19.2935 0.360015 19.5693 0.635803C19.8451 0.911592 20 1.28564 20 1.67567ZM5.88235 7.85214H2.94118V17.2639H5.88235V7.85214ZM6.14706 4.61684C6.14861 4.39437 6.10632 4.17376 6.02261 3.96763C5.93891 3.7615 5.81542 3.57387 5.65919 3.41546C5.50297 3.25706 5.31708 3.13097 5.11213 3.04441C4.90718 2.95785 4.68718 2.9125 4.46471 2.91096H4.41177C3.95934 2.91096 3.52544 3.09069 3.20552 3.4106C2.88561 3.73052 2.70588 4.16441 2.70588 4.61684C2.70588 5.06927 2.88561 5.50317 3.20552 5.82308C3.52544 6.143 3.95934 6.32273 4.41177 6.32273C4.63426 6.3282 4.85565 6.28978 5.06328 6.20966C5.27092 6.12954 5.46074 6.0093 5.62189 5.8558C5.78304 5.70229 5.91237 5.51854 6.00248 5.31504C6.09259 5.11154 6.14172 4.89228 6.14706 4.66978V4.61684ZM17.0588 11.5463C17.0588 8.71684 15.2588 7.61684 13.4706 7.61684C12.8851 7.58753 12.3021 7.71223 11.7799 7.97853C11.2576 8.24482 10.8143 8.64339 10.4941 9.13449H10.4118V7.85214H7.64706V17.2639H10.5882V12.258C10.5457 11.7453 10.7072 11.2366 11.0376 10.8423C11.3681 10.448 11.8407 10.2 12.3529 10.1521H12.4647C13.4 10.1521 14.0941 10.7404 14.0941 12.2227V17.2639H17.0353L17.0588 11.5463Z" fill="white"/>
</svg>
