<svg width="20" height="17" viewBox="0 0 20 17" fill="none" xmlns="http://www.w3.org/2000/svg">
<path d="M1.66675 16.2051C1.21675 16.2051 0.826417 16.0398 0.49575 15.7093C0.16525 15.3787 0 14.9883 0 14.5383V1.87183C0 1.42183 0.16525 1.0315 0.49575 0.700829C0.826417 0.370329 1.21675 0.205078 1.66675 0.205078H18.3333C18.7833 0.205078 19.1736 0.370329 19.5043 0.700829C19.8348 1.0315 20 1.42183 20 1.87183V14.5383C20 14.9883 19.8348 15.3787 19.5043 15.7093C19.1736 16.0398 18.7833 16.2051 18.3333 16.2051H1.66675ZM10 8.83833L18.3333 3.45508V1.87183L10 7.17183L1.66675 1.87183V3.45508L10 8.83833Z" fill="white"/>
</svg>
