<svg width="77" height="49" viewBox="0 0 77 49" fill="none" xmlns="http://www.w3.org/2000/svg">
<g clip-path="url(#clip0_204_324)">
<path d="M27.7868 19.7863C27.3849 19.8948 27.2372 19.9359 26.9531 20.0106L31.5251 18.9078C29.5793 19.3602 27.983 19.7321 27.7868 19.7845V19.7863Z" fill="white"/>
<path d="M67.7047 8.79358L65.4542 11.2216L51.4486 14.2384C46.8804 10.6646 41.3009 7.20853 40.2318 6.55433L38.5196 7.87582L36.8972 9.09078L36.2449 9.52629C36.529 9.12629 36.8542 8.7805 37.1963 8.45526C37.5346 8.12629 37.8991 7.83096 38.2673 7.54311C38.6449 7.26461 39.0262 6.99358 39.4336 6.7562C39.6299 6.63844 39.8299 6.52629 40.0355 6.42349C39.7626 6.03844 35.5327 0.30573 26.9028 0.206665C16.2187 0.668347 7.90841 4.97115 2.29346 14.4852C2.29346 14.4852 3.31215 13.8627 5.07477 13.4422C3.46916 13.8758 0 19.9113 0 24.8777C0 24.8777 0.725233 23.9506 2.13271 23.0459C0.839252 25.1655 -0.140187 31.2683 4.64673 39.2029C4.64673 39.2029 4.57196 37.2235 5.08224 34.7506C7.94392 44.1824 13.8972 48.2067 13.8972 48.2067C20.2224 25.1954 33.4748 19.8777 33.4748 19.8777C41.9439 21.0852 54.6093 19.2983 54.6093 19.2983L41.385 17.1113C41.0561 17.1954 40.2542 17.3599 40.028 17.4235C39.8224 17.4833 38.071 17.8796 35.9832 18.3506L25.0598 20.9842L23.1981 24.0553L20.7963 24.6515C20.828 24.5655 20.8561 24.4777 20.8822 24.3898C20.9346 24.216 20.9776 24.0403 21.0093 23.859C21.0411 23.6796 21.0635 23.4964 21.0598 23.3057C20.9533 23.4627 20.871 23.6291 20.8 23.7973C20.729 23.9655 20.6673 24.1375 20.6168 24.3113C20.5757 24.4459 20.5421 24.5842 20.514 24.7226L15.529 25.9618C15.5458 25.9076 15.5645 25.8553 15.5794 25.8011C15.6318 25.6272 15.6748 25.4515 15.7065 25.2702C15.7383 25.0908 15.7607 24.9076 15.757 24.7169C15.6486 24.874 15.5682 25.0403 15.4972 25.2085C15.4262 25.3768 15.3645 25.5487 15.314 25.7226C15.2841 25.8254 15.2561 25.93 15.2318 26.0347L10.8019 27.1356C10.8131 27.102 10.8224 27.0702 10.8336 27.0366C10.886 26.8627 10.929 26.687 10.9607 26.5057C10.9925 26.3263 11.015 26.1431 11.0112 25.9525C10.9047 26.1095 10.8243 26.2758 10.7514 26.444C10.6804 26.6123 10.6187 26.7842 10.5682 26.9581C10.5439 27.0422 10.5196 27.1263 10.5009 27.2123L7.38131 27.988L9.33458 24.7655L24.9607 20.8702L24.9065 20.644L9.28224 24.5394L5.99065 22.5431L9.2 21.7469C9.25794 21.8216 9.31589 21.8964 9.37757 21.9693C9.49533 22.1057 9.61869 22.2384 9.7514 22.3618C9.88598 22.4852 10.0262 22.6029 10.1869 22.702C10.114 22.5263 10.0187 22.3693 9.91962 22.2179C9.81869 22.0665 9.70841 21.9244 9.59065 21.7861C9.55888 21.7487 9.52523 21.7113 9.49159 21.674L14.0206 20.5487C14.1065 20.6721 14.1981 20.7898 14.2953 20.9039C14.4131 21.0422 14.5364 21.173 14.6692 21.2964C14.8019 21.4197 14.9421 21.5375 15.1047 21.6366C15.0318 21.4609 14.9364 21.3039 14.8355 21.1525C14.7346 21.0011 14.6243 20.859 14.5065 20.7207C14.4355 20.6384 14.3626 20.5599 14.2878 20.4814L19.1963 19.2609C19.2019 19.2702 19.2093 19.2814 19.215 19.2908C19.3159 19.4422 19.4262 19.5842 19.5439 19.7226C19.6617 19.859 19.785 19.9917 19.9178 20.1151C20.0523 20.2384 20.1907 20.3562 20.3533 20.4553C20.2804 20.2796 20.185 20.1226 20.0841 19.9712C19.9813 19.8197 19.8729 19.6777 19.7551 19.5394C19.6542 19.4216 19.5477 19.3076 19.4355 19.2011L21.843 18.6029L24.9607 20.4926L26.957 20.0123C27.2411 19.9375 27.3888 19.8964 27.7906 19.788C27.9869 19.7356 29.5832 19.3618 31.529 18.9113L39.9645 16.8777L36.3533 16.2814C43.3869 15.9637 56.8149 19.3001 56.8149 19.3001C55.8019 17.9169 54.0093 16.2796 51.9645 14.6459L65.4729 11.7356L68.7495 12.9226L76.7738 8.79732H67.7121L67.7047 8.79358ZM32.514 9.52068C31.714 9.52068 31.0654 8.87209 31.0654 8.07209C31.0654 7.27209 31.714 6.62349 32.514 6.62349C33.314 6.62349 33.9626 7.27209 33.9626 8.07209C33.9626 8.87209 33.314 9.52068 32.514 9.52068Z" fill="white"/>
</g>
<defs>
<clipPath id="clip0_204_324">
<rect width="76.7663" height="48" fill="white" transform="translate(0 0.205017)"/>
</clipPath>
</defs>
</svg>
