<svg width="8" height="10" viewBox="0 0 8 10" fill="none" xmlns="http://www.w3.org/2000/svg">
<path d="M4.00419 4.99995C4.25244 4.99995 4.46406 4.91158 4.63906 4.73483C4.81406 4.55808 4.90156 4.34558 4.90156 4.09733C4.90156 3.84908 4.81319 3.63745 4.63644 3.46245C4.45969 3.28745 4.24719 3.19995 3.99894 3.19995C3.75069 3.19995 3.53906 3.28833 3.36406 3.46508C3.18906 3.64183 3.10156 3.85433 3.10156 4.10258C3.10156 4.35083 3.18994 4.56245 3.36669 4.73745C3.54344 4.91245 3.75594 4.99995 4.00419 4.99995ZM4.00156 9.79995C2.69348 8.70737 1.71644 7.69258 1.07044 6.75558C0.424521 5.81849 0.101562 4.94578 0.101562 4.13745C0.101562 3.02078 0.472396 2.08537 1.21406 1.3312C1.95573 0.577035 2.88281 0.199951 3.99531 0.199951C5.10781 0.199951 6.03698 0.577035 6.78281 1.3312C7.52865 2.08537 7.90156 3.02078 7.90156 4.13745C7.90156 4.94578 7.58073 5.81662 6.93906 6.74995C6.2974 7.68329 5.31823 8.69995 4.00156 9.79995Z" fill="black"/>
</svg>
